HIERARCHY
ROOT newVegas:Hips
{
	OFFSET 0.000000 96.479958 0.000000
	CHANNELS 6 Xposition Yposition Zposition Xrotation Yrotation Zrotation
	JOINT newVegas:Pelvis
	{
		OFFSET 0.000000 0.000000 0.000000
		CHANNELS 3 Xrotation Yrotation Zrotation
		JOINT newVegas:LeftUpLeg
		{
			OFFSET 18.735201 -5.666702 -4.541200
			CHANNELS 3 Xrotation Yrotation Zrotation
			JOINT newVegas:LeftLeg
			{
				OFFSET -0.021200 -31.938179 0.493100
				CHANNELS 3 Xrotation Yrotation Zrotation
				JOINT newVegas:LeftFoot
				{
					OFFSET 0.021200 -31.938179 -4.336299
					CHANNELS 3 Xrotation Yrotation Zrotation
					JOINT newVegas:LeftToeBase
					{
						OFFSET 0.943001 -26.722000 15.023500
						CHANNELS 3 Xrotation Yrotation Zrotation
						End Site
						{
							OFFSET 0.000000 30.670183 0.000000
						}
					}
				}
				JOINT newVegas:Left_PantLeg
				{
					OFFSET 0.663870 -9.044666 -1.108900
					CHANNELS 3 Xrotation Yrotation Zrotation
					End Site
					{
						OFFSET 1.415995 20.635357 0.000000
					}
				}
			}
		}
		JOINT newVegas:RightUpLeg
		{
			OFFSET -18.735201 -5.666702 -4.541200
			CHANNELS 3 Xrotation Yrotation Zrotation
			JOINT newVegas:RightLeg
			{
				OFFSET 0.018946 -31.938133 0.493100
				CHANNELS 3 Xrotation Yrotation Zrotation
				JOINT newVegas:RightFoot
				{
					OFFSET -0.018946 -31.938126 -4.336299
					CHANNELS 3 Xrotation Yrotation Zrotation
					JOINT newVegas:RightToeBase
					{
						OFFSET -0.943001 -26.722004 15.023500
						CHANNELS 3 Xrotation Yrotation Zrotation
						End Site
						{
							OFFSET 0.000000 30.670187 0.000000
						}
					}
				}
				JOINT newVegas:Right_PantLeg
				{
					OFFSET -0.661674 -9.044716 -1.108900
					CHANNELS 3 Xrotation Yrotation Zrotation
					End Site
					{
						OFFSET -1.415958 20.635269 0.000000
					}
				}
			}
		}
	}
	JOINT newVegas:Spine
	{
		OFFSET 0.000000 10.199997 -0.299500
		CHANNELS 3 Xrotation Yrotation Zrotation
		JOINT newVegas:Spine1
		{
			OFFSET 0.000000 11.900002 -1.516600
			CHANNELS 3 Xrotation Yrotation Zrotation
			JOINT newVegas:Spine2
			{
				OFFSET 0.000000 13.600006 -2.842500
				CHANNELS 3 Xrotation Yrotation Zrotation
				JOINT newVegas:Neck
				{
					OFFSET 0.000000 9.624100 -2.890100
					CHANNELS 3 Xrotation Yrotation Zrotation
					JOINT newVegas:Head
					{
						OFFSET 0.000000 14.068802 -1.351900
						CHANNELS 3 Xrotation Yrotation Zrotation
						JOINT newVegas:Hair_Back
						{
							OFFSET 0.000000 3.231903 -17.524799
							CHANNELS 3 Xrotation Yrotation Zrotation
							End Site
							{
								OFFSET 0.000000 19.849884 0.000000
							}
						}
						JOINT newVegas:Hair_Front
						{
							OFFSET 0.000000 31.260406 4.573800
							CHANNELS 3 Xrotation Yrotation Zrotation
							JOINT newVegas:Hair_Front1
							{
								OFFSET 0.000000 2.284103 11.993300
								CHANNELS 3 Xrotation Yrotation Zrotation
								JOINT newVegas:Hair_Front2
								{
									OFFSET 0.000000 2.284103 11.993300
									CHANNELS 3 Xrotation Yrotation Zrotation
									End Site
									{
										OFFSET 0.000000 12.208862 0.000000
									}
								}
							}
						}
						JOINT newVegas:Jowel
						{
							OFFSET 0.000000 -7.458206 6.864100
							CHANNELS 3 Xrotation Yrotation Zrotation
							End Site
							{
								OFFSET 0.000000 19.849884 0.000000
							}
						}
					}
				}
				JOINT newVegas:LeftShoulder
				{
					OFFSET 15.263000 10.923401 -0.547700
					CHANNELS 3 Xrotation Yrotation Zrotation
					JOINT newVegas:LeftArm
					{
						OFFSET 25.438599 -2.830597 -13.032500
						CHANNELS 3 Xrotation Yrotation Zrotation
						JOINT newVegas:LeftForeArm
						{
							OFFSET 29.960503 0.000000 0.000000
							CHANNELS 3 Xrotation Yrotation Zrotation
							JOINT newVegas:LeftHand
							{
								OFFSET 27.849251 0.000000 0.000000
								CHANNELS 3 Xrotation Yrotation Zrotation
								JOINT newVegas:LeftHandThumb1
								{
									OFFSET 4.487587 -3.305161 6.305391
									CHANNELS 3 Xrotation Yrotation Zrotation
									JOINT newVegas:LeftHandThumb2
									{
										OFFSET 5.480453 -3.164139 3.164143
										CHANNELS 3 Xrotation Yrotation Zrotation
										JOINT newVegas:LeftHandThumb3
										{
											OFFSET 5.159721 -2.978973 2.978967
											CHANNELS 3 Xrotation Yrotation Zrotation
											End Site
											{
												OFFSET 2.494507 5.926697 1.738678
											}
										}
									}
								}
								JOINT newVegas:LeftHandIndex1
								{
									OFFSET 18.578728 -0.527832 5.208049
									CHANNELS 3 Xrotation Yrotation Zrotation
									JOINT newVegas:LeftHandIndex2
									{
										OFFSET 3.192009 0.000000 0.000000
										CHANNELS 3 Xrotation Yrotation Zrotation
										JOINT newVegas:LeftHandIndex3
										{
											OFFSET 3.835129 0.000000 0.000000
											CHANNELS 3 Xrotation Yrotation Zrotation
											End Site
											{
												OFFSET -0.034599 3.816971 0.371180
											}
										}
									}
								}
								JOINT newVegas:LeftHandMiddle1
								{
									OFFSET 18.476105 0.000000 0.000000
									CHANNELS 3 Xrotation Yrotation Zrotation
									JOINT newVegas:LeftHandMiddle2
									{
										OFFSET 3.324875 0.000000 0.000000
										CHANNELS 3 Xrotation Yrotation Zrotation
										JOINT newVegas:LeftHandMiddle3
										{
											OFFSET 4.596550 0.000000 0.000000
											CHANNELS 3 Xrotation Yrotation Zrotation
											End Site
											{
												OFFSET 0.057701 4.578827 0.399218
											}
										}
									}
								}
								JOINT newVegas:LeftHandRing1
								{
									OFFSET 17.732719 0.121887 -4.201567
									CHANNELS 3 Xrotation Yrotation Zrotation
									JOINT newVegas:LeftHandRing2
									{
										OFFSET 2.733170 0.000000 0.000000
										CHANNELS 3 Xrotation Yrotation Zrotation
										JOINT newVegas:LeftHandRing3
										{
											OFFSET 3.178268 0.000000 0.000000
											CHANNELS 3 Xrotation Yrotation Zrotation
											End Site
											{
												OFFSET 0.119102 3.170624 0.185394
											}
										}
									}
								}
								JOINT newVegas:LeftHandPinky1
								{
									OFFSET 15.989624 -0.606689 -7.535461
									CHANNELS 3 Xrotation Yrotation Zrotation
									JOINT newVegas:LeftHandPinky2
									{
										OFFSET 2.538986 0.000000 0.000000
										CHANNELS 3 Xrotation Yrotation Zrotation
										JOINT newVegas:LeftHandPinky3
										{
											OFFSET 2.593102 0.000000 0.000000
											CHANNELS 3 Xrotation Yrotation Zrotation
											End Site
											{
												OFFSET -0.150902 2.584198 0.152708
											}
										}
									}
								}
							}
							JOINT newVegas:Left_Sleeve
							{
								OFFSET 0.267448 -0.649796 0.577675
								CHANNELS 3 Xrotation Yrotation Zrotation
								End Site
								{
									OFFSET 0.000000 15.991241 0.000000
								}
							}
							JOINT newVegas:Left_CapeC
							{
								OFFSET 15.715958 -8.608795 -6.935905
								CHANNELS 3 Xrotation Yrotation Zrotation
								JOINT newVegas:Left_CapeC1
								{
									OFFSET 0.000000 -8.688499 0.000000
									CHANNELS 3 Xrotation Yrotation Zrotation
									End Site
									{
										OFFSET 0.000000 8.688499 0.000000
									}
								}
							}
						}
						JOINT newVegas:Left_CapeB
						{
							OFFSET 26.118385 -8.608795 -7.079235
							CHANNELS 3 Xrotation Yrotation Zrotation
							JOINT newVegas:Left_CapeB1
							{
								OFFSET 0.000000 -8.688499 0.000000
								CHANNELS 3 Xrotation Yrotation Zrotation
								End Site
								{
									OFFSET 0.000000 8.688499 0.000000
								}
							}
						}
						JOINT newVegas:Left_CapeA
						{
							OFFSET 5.115639 -8.608795 -10.395809
							CHANNELS 3 Xrotation Yrotation Zrotation
							JOINT newVegas:Left_CapeA1
							{
								OFFSET 0.000000 -8.688499 0.000000
								CHANNELS 3 Xrotation Yrotation Zrotation
								End Site
								{
									OFFSET 0.000000 8.688499 0.000000
								}
							}
						}
					}
				}
				JOINT newVegas:RightShoulder
				{
					OFFSET -15.263000 10.923401 -0.547700
					CHANNELS 3 Xrotation Yrotation Zrotation
					JOINT newVegas:RightArm
					{
						OFFSET -25.438599 -2.830597 -13.032500
						CHANNELS 3 Xrotation Yrotation Zrotation
						JOINT newVegas:RightForeArm
						{
							OFFSET -29.960503 0.000000 0.000000
							CHANNELS 3 Xrotation Yrotation Zrotation
							JOINT newVegas:RightHand
							{
								OFFSET -27.849251 0.000000 0.000000
								CHANNELS 3 Xrotation Yrotation Zrotation
								JOINT newVegas:RightHandThumb1
								{
									OFFSET -4.487587 -3.305161 6.305391
									CHANNELS 3 Xrotation Yrotation Zrotation
									JOINT newVegas:RightHandThumb2
									{
										OFFSET -5.480453 -3.164139 3.164143
										CHANNELS 3 Xrotation Yrotation Zrotation
										JOINT newVegas:RightHandThumb3
										{
											OFFSET -5.159721 -2.978973 2.978967
											CHANNELS 3 Xrotation Yrotation Zrotation
											End Site
											{
												OFFSET -2.494507 5.926697 1.738678
											}
										}
									}
								}
								JOINT newVegas:RightHandIndex1
								{
									OFFSET -18.578728 -0.527832 5.208049
									CHANNELS 3 Xrotation Yrotation Zrotation
									JOINT newVegas:RightHandIndex2
									{
										OFFSET -3.192009 0.000000 0.000000
										CHANNELS 3 Xrotation Yrotation Zrotation
										JOINT newVegas:RightHandIndex3
										{
											OFFSET -3.835129 0.000000 0.000000
											CHANNELS 3 Xrotation Yrotation Zrotation
											End Site
											{
												OFFSET 0.034599 3.816971 0.371180
											}
										}
									}
								}
								JOINT newVegas:RightHandMiddle1
								{
									OFFSET -18.476105 0.000000 0.000000
									CHANNELS 3 Xrotation Yrotation Zrotation
									JOINT newVegas:RightHandMiddle2
									{
										OFFSET -3.324875 0.000000 0.000000
										CHANNELS 3 Xrotation Yrotation Zrotation
										JOINT newVegas:RightHandMiddle3
										{
											OFFSET -4.596550 0.000000 0.000000
											CHANNELS 3 Xrotation Yrotation Zrotation
											End Site
											{
												OFFSET -0.057701 4.578827 0.399218
											}
										}
									}
								}
								JOINT newVegas:RightHandRing1
								{
									OFFSET -17.732719 0.121887 -4.201567
									CHANNELS 3 Xrotation Yrotation Zrotation
									JOINT newVegas:RightHandRing2
									{
										OFFSET -2.733170 0.000000 0.000000
										CHANNELS 3 Xrotation Yrotation Zrotation
										JOINT newVegas:RightHandRing3
										{
											OFFSET -3.178268 0.000000 0.000000
											CHANNELS 3 Xrotation Yrotation Zrotation
											End Site
											{
												OFFSET -0.119102 3.170624 0.185394
											}
										}
									}
								}
								JOINT newVegas:RightHandPinky1
								{
									OFFSET -15.989624 -0.606689 -7.535461
									CHANNELS 3 Xrotation Yrotation Zrotation
									JOINT newVegas:RightHandPinky2
									{
										OFFSET -2.538986 0.000000 0.000000
										CHANNELS 3 Xrotation Yrotation Zrotation
										JOINT newVegas:RightHandPinky3
										{
											OFFSET -2.593102 0.000000 0.000000
											CHANNELS 3 Xrotation Yrotation Zrotation
											End Site
											{
												OFFSET 0.150902 2.584198 0.152708
											}
										}
									}
								}
							}
							JOINT newVegas:Right_CapeC
							{
								OFFSET -15.715958 -8.608795 -6.935905
								CHANNELS 3 Xrotation Yrotation Zrotation
								JOINT newVegas:Right_CapeC1
								{
									OFFSET 0.000000 -8.688499 0.000000
									CHANNELS 3 Xrotation Yrotation Zrotation
									End Site
									{
										OFFSET 0.000000 8.688499 0.000000
									}
								}
							}
							JOINT newVegas:Right_Sleeve
							{
								OFFSET -0.267448 -0.649994 0.577675
								CHANNELS 3 Xrotation Yrotation Zrotation
								End Site
								{
									OFFSET 0.000000 15.991302 0.000000
								}
							}
						}
						JOINT newVegas:Right_CapeA
						{
							OFFSET -5.115540 -8.608795 -10.395824
							CHANNELS 3 Xrotation Yrotation Zrotation
							JOINT newVegas:Right_CapeA1
							{
								OFFSET 0.000000 -8.688499 0.000000
								CHANNELS 3 Xrotation Yrotation Zrotation
								End Site
								{
									OFFSET 0.000000 8.688499 0.000000
								}
							}
						}
						JOINT newVegas:Right_CapeB
						{
							OFFSET -26.118187 -8.608795 -7.079266
							CHANNELS 3 Xrotation Yrotation Zrotation
							JOINT newVegas:Right_CapeB1
							{
								OFFSET 0.000000 -8.688499 0.000000
								CHANNELS 3 Xrotation Yrotation Zrotation
								End Site
								{
									OFFSET 0.000000 8.688499 0.000000
								}
							}
						}
					}
				}
				JOINT newVegas:Left_Collar
				{
					OFFSET 18.625099 8.655502 8.828100
					CHANNELS 3 Xrotation Yrotation Zrotation
					JOINT newVegas:Left_Collar1
					{
						OFFSET 14.783401 10.540405 -1.259500
						CHANNELS 3 Xrotation Yrotation Zrotation
						End Site
						{
							OFFSET 0.000000 18.199875 0.000000
						}
					}
				}
				JOINT newVegas:Collar_Back
				{
					OFFSET 0.000000 15.630707 -20.132601
					CHANNELS 3 Xrotation Yrotation Zrotation
					End Site
					{
						OFFSET 0.000000 22.523010 0.000000
					}
				}
				JOINT newVegas:Left_Peck
				{
					OFFSET 17.239599 -5.132599 25.482599
					CHANNELS 3 Xrotation Yrotation Zrotation
					End Site
					{
						OFFSET 0.000000 22.523010 0.000000
					}
				}
				JOINT newVegas:Right_Peck
				{
					OFFSET -17.239599 -5.132202 25.482599
					CHANNELS 3 Xrotation Yrotation Zrotation
					End Site
					{
						OFFSET 0.000000 22.523010 0.000000
					}
				}
				JOINT newVegas:Right_Collar
				{
					OFFSET -18.625099 8.655792 8.828100
					CHANNELS 3 Xrotation Yrotation Zrotation
					JOINT newVegas:Right_Collar1
					{
						OFFSET -14.783401 10.539993 -1.259500
						CHANNELS 3 Xrotation Yrotation Zrotation
						End Site
						{
							OFFSET 0.000000 18.199631 0.000000
						}
					}
				}
			}
		}
		JOINT newVegas:Belly
		{
			OFFSET 0.000000 -6.540398 9.014299
			CHANNELS 3 Xrotation Yrotation Zrotation
			End Site
			{
				OFFSET 0.000000 11.566666 0.000000
			}
		}
	}
	JOINT newVegas:ElvisFacialAnim_Joint
	{
		OFFSET 1.000000 -95.330101 -8.825800
		CHANNELS 3 Xrotation Yrotation Zrotation
		End Site
		{
			OFFSET 0.000000 35.315800 0.000000
		}
	}
}
MOTION
Frames: 4
Frame Time: 0.033333
-0.542597 266.270844 7.874712 17.439425 -1.995843 0.402748 0.000001 -0.000000 0.000000 -54.620616 3.435887 -2.925572 31.012884 -2.165226 1.516534 30.803788 1.302856 6.322759 0.000002 -0.000000 -0.000000 0.000000 -0.000000 0.000000 -48.947294 -2.270750 1.550295 10.344970 7.523170 0.003518 60.367418 0.419338 0.986093 0.000001 0.000000 -0.000000 0.000000 0.000001 -0.000000 12.364518 -0.666983 0.156367 3.426036 0.047383 0.321976 3.426032 0.046068 0.322396 0.786772 -0.284492 0.681269 0.786819 -0.284492 0.681271 -0.000002 0.000000 -0.000000 0.786811 -0.284490 0.681269 0.786689 -0.284497 0.681270 -0.000001 0.000000 0.000000 -0.000002 0.000000 -0.000000 0.604260 -10.504608 -9.421457 -17.877745 14.490823 -30.611327 0.000012 -41.131836 0.000011 16.502854 9.718834 8.939563 -7.220047 -16.942337 15.004568 8.794626 6.511424 5.542591 0.000003 -0.000001 0.000001 -1.733269 -2.965521 -17.643892 0.673202 2.728567 -27.714372 -0.000002 -0.000000 -0.000001 0.645962 4.940497 -30.246752 0.391297 2.107030 -21.039894 0.000000 -0.000000 0.000000 3.708523 9.022005 -37.868826 0.267218 1.750796 -17.354201 0.000003 -0.000001 -0.000001 6.648187 15.451645 -40.793766 0.458220 2.273199 -22.790439 -0.000000 -0.000002 -0.000001 -0.000001 0.000001 0.000001 -0.000001 0.000001 0.000001 -0.000002 0.000002 0.000000 -0.000000 -0.000002 0.000001 -0.000000 -0.000002 -0.000003 -0.000000 -0.000002 0.000001 -0.000000 -0.000002 0.000001 0.150133 8.223916 20.126230 -26.070562 -14.560034 26.233286 0.000004 29.063719 -0.000005 7.443063 2.218481 -22.979022 -29.747349 -9.206934 6.858819 15.739000 -8.312258 6.828506 0.000002 -0.000000 0.000005 -0.797889 -0.539210 19.767271 0.062417 -0.760732 9.380851 -0.000001 0.000001 -0.000003 -0.103201 -3.204648 28.831171 0.439936 -1.977681 25.080239 0.000001 -0.000000 -0.000001 2.018157 -6.407590 37.795258 0.429152 -1.954485 24.765805 0.000001 0.000001 0.000000 4.075643 -9.601510 34.188915 0.179328 -1.281211 15.935017 -0.000000 -0.000000 -0.000000 0.000000 0.000000 0.000001 0.000000 0.000000 0.000001 0.000000 0.000000 0.000001 0.000000 0.000001 -0.000000 0.000000 0.000001 -0.000000 0.000000 0.000001 -0.000000 0.000001 0.000001 0.000001 0.000005 0.000000 -0.000000 0.000005 0.000000 -0.000000 0.000005 0.000000 -0.000000 0.000005 0.000000 -0.000000 0.000005 0.000000 -0.000000 0.000005 0.000000 -0.000000 0.000005 0.000000 -0.000000 -0.000001 0.000000 -0.000000 0.000001 -0.000000 0.000000 
-0.648256 265.261292 6.678766 22.878941 -0.598016 0.258043 -0.000002 0.000000 -0.000000 -61.802017 3.837460 -3.577832 33.297254 -7.606342 2.236217 27.694486 0.907656 4.065488 0.000000 0.000001 -0.000000 -0.000000 0.000001 0.000000 -54.664627 -2.262141 0.501006 9.119216 8.499528 0.610829 61.211131 1.615816 2.318787 -0.000002 0.000000 -0.000000 -0.000002 0.000000 -0.000000 13.742832 -0.976307 0.720809 3.925951 -0.009267 0.420095 3.925663 -0.010343 0.421525 0.685597 -0.337434 0.808887 0.685600 -0.337433 0.808887 0.000001 -0.000000 0.000000 0.685609 -0.337432 0.808885 0.685646 -0.337437 0.808888 0.000000 -0.000000 -0.000000 0.000001 -0.000000 0.000000 0.977926 -12.011522 -7.872117 -31.767118 -1.357099 -27.654970 -0.000010 -40.816732 -0.000001 20.151199 6.589606 13.582799 -7.220050 -16.942334 15.004566 8.794624 6.511424 5.542589 0.000001 -0.000002 -0.000003 -1.733270 -2.965520 -17.643893 0.673199 2.728561 -27.714372 0.000001 0.000001 -0.000001 0.645958 4.940501 -30.246752 0.391294 2.107028 -21.039891 0.000002 -0.000001 0.000001 3.708524 9.022005 -37.868830 0.267220 1.750793 -17.354201 0.000004 0.000001 0.000001 6.648186 15.451648 -40.793759 0.458221 2.273199 -22.790439 -0.000002 -0.000003 0.000000 -0.000000 0.000003 -0.000002 -0.000000 0.000003 -0.000002 0.000000 0.000004 -0.000002 -0.000001 0.000001 0.000003 0.000000 0.000001 0.000003 -0.000001 0.000001 0.000003 -0.000001 0.000002 0.000002 0.812832 11.643809 16.785393 -42.548489 -4.506264 28.412228 -0.000002 33.462145 0.000011 10.689168 -0.383066 -24.065791 -29.747359 -9.206940 6.858825 15.739000 -8.312261 6.828514 0.000000 0.000002 -0.000004 -0.797896 -0.539202 19.767269 0.062418 -0.760731 9.380852 -0.000003 -0.000002 0.000000 -0.103203 -3.204647 28.831164 0.439935 -1.977686 25.080231 -0.000002 -0.000001 -0.000000 2.018153 -6.407599 37.795231 0.429155 -1.954482 24.765810 -0.000001 -0.000001 0.000001 4.075645 -9.601513 34.188911 0.179330 -1.281225 15.935026 0.000000 0.000003 0.000002 -0.000001 0.000000 -0.000002 -0.000001 0.000000 -0.000002 -0.000001 0.000000 -0.000002 -0.000000 0.000000 -0.000001 -0.000000 0.000000 -0.000001 -0.000000 0.000000 -0.000001 -0.000000 -0.000000 0.000001 0.000001 0.000000 -0.000000 0.000001 0.000000 -0.000000 0.000001 0.000000 -0.000000 0.000001 0.000000 -0.000000 0.000001 0.000000 -0.000000 0.000001 0.000000 -0.000000 0.000001 0.000000 -0.000000 -0.000001 0.000000 -0.000000 -0.000002 0.000000 -0.000000 
-0.628437 263.578125 6.230793 27.705759 0.778301 0.289206 0.000001 -0.000000 0.000000 -67.785598 3.741777 -5.514588 33.814019 -7.822908 3.177008 28.102783 0.921970 4.724295 -0.000001 0.000000 -0.000000 0.000000 -0.000001 -0.000000 -60.193815 -1.677920 1.073681 8.806276 7.075064 0.522794 63.879358 -0.415169 -1.624068 0.000000 0.000001 -0.000000 -0.000004 0.000000 -0.000000 14.232836 -1.457241 0.932314 4.163189 -0.113632 0.533450 4.162200 -0.119407 0.538904 0.658482 -0.361888 0.886402 0.658467 -0.361887 0.886400 0.000000 -0.000000 -0.000000 0.658488 -0.361887 0.886403 0.658496 -0.361884 0.886400 0.000003 0.000000 -0.000001 0.000000 -0.000000 -0.000000 1.292722 -12.448780 -5.325681 -37.814222 -16.804567 -31.440129 -0.000004 -35.662760 -0.000012 23.559798 4.624718 14.653546 -7.220050 -16.942334 15.004565 8.794622 6.511423 5.542588 0.000002 0.000000 -0.000004 -1.733270 -2.965522 -17.643892 0.673200 2.728565 -27.714372 -0.000001 0.000000 -0.000003 0.645960 4.940496 -30.246755 0.391299 2.107029 -21.039887 -0.000001 -0.000000 0.000001 3.708522 9.022005 -37.868833 0.267222 1.750796 -17.354203 0.000002 0.000001 0.000000 6.648184 15.451648 -40.793759 0.458219 2.273199 -22.790437 0.000002 -0.000003 -0.000000 -0.000000 0.000000 0.000002 -0.000000 0.000000 0.000002 -0.000001 0.000000 0.000002 -0.000001 -0.000001 -0.000000 -0.000001 -0.000002 -0.000003 -0.000001 -0.000001 -0.000000 -0.000002 -0.000001 -0.000000 1.308704 13.848439 13.932940 -46.151114 5.874889 32.517807 0.000000 33.035173 0.000003 12.960654 -1.028920 -22.937816 -29.747356 -9.206934 6.858831 15.739000 -8.312257 6.828499 -0.000000 -0.000001 0.000001 -0.797887 -0.539201 19.767257 0.062416 -0.760734 9.380848 0.000001 -0.000000 0.000002 -0.103209 -3.204637 28.831168 0.439942 -1.977685 25.080245 -0.000001 -0.000001 0.000001 2.018152 -6.407586 37.795262 0.429153 -1.954484 24.765790 -0.000000 -0.000003 -0.000000 4.075646 -9.601516 34.188905 0.179334 -1.281218 15.935012 -0.000001 0.000002 -0.000001 -0.000002 -0.000003 0.000004 -0.000001 -0.000004 0.000003 -0.000002 -0.000004 0.000003 0.000000 0.000001 0.000002 -0.000000 0.000001 0.000002 0.000000 0.000001 0.000002 -0.000000 0.000001 0.000004 0.000001 0.000000 -0.000000 0.000001 0.000000 -0.000000 0.000001 0.000000 -0.000000 0.000001 0.000000 -0.000000 0.000001 0.000000 -0.000000 0.000001 0.000000 -0.000000 0.000001 0.000000 -0.000000 -0.000003 0.000000 -0.000000 0.000001 -0.000000 0.000000 
-0.577430 261.724792 6.512695 31.155901 1.796435 0.378757 0.000000 -0.000000 0.000000 -71.417899 3.751700 -9.335525 33.107150 -6.261191 4.664692 30.288925 1.941181 9.790651 -0.000001 0.000001 -0.000000 0.000001 0.000000 -0.000000 -63.531462 -0.787123 1.992372 6.765900 4.767484 0.162694 68.912360 -2.987116 -5.743342 0.000000 -0.000000 -0.000001 -0.000001 0.000000 -0.000000 15.038716 -1.927447 1.131654 4.330891 -0.205406 0.648986 4.329076 -0.216419 0.659231 0.675614 -0.355316 0.915142 0.675626 -0.355317 0.915143 -0.000003 0.000000 -0.000000 0.675680 -0.355315 0.915143 0.675618 -0.355315 0.915141 -0.000002 0.000000 -0.000000 -0.000003 0.000000 -0.000000 1.361361 -12.945400 -3.698486 -36.056131 -29.033044 -35.567332 -0.000006 -27.587457 -0.000015 26.850913 3.570105 12.314490 -7.220049 -16.942335 15.004568 8.794625 6.511424 5.542594 0.000002 -0.000002 -0.000001 -1.733269 -2.965523 -17.643890 0.673200 2.728564 -27.714375 0.000000 0.000001 0.000000 0.645962 4.940497 -30.246752 0.391300 2.107029 -21.039891 -0.000001 0.000001 -0.000000 3.708526 9.022008 -37.868830 0.267221 1.750797 -17.354199 -0.000002 0.000001 -0.000001 6.648188 15.451648 -40.793766 0.458219 2.273198 -22.790437 -0.000001 -0.000002 -0.000000 -0.000001 0.000001 0.000002 -0.000001 0.000001 0.000002 -0.000002 0.000001 0.000002 -0.000002 0.000000 -0.000002 -0.000002 -0.000001 -0.000003 -0.000002 0.000000 -0.000002 -0.000003 0.000000 -0.000002 1.200778 15.534449 13.603037 -38.026368 16.685076 31.213186 -0.000002 28.471510 0.000007 17.489171 -0.012376 -20.472169 -29.747352 -9.206933 6.858819 15.739000 -8.312260 6.828509 -0.000001 -0.000000 -0.000000 -0.797890 -0.539215 19.767264 0.062417 -0.760733 9.380849 0.000003 -0.000000 -0.000002 -0.103204 -3.204646 28.831164 0.439932 -1.977693 25.080233 -0.000000 -0.000000 0.000000 2.018158 -6.407592 37.795258 0.429154 -1.954483 24.765798 0.000001 0.000001 0.000001 4.075648 -9.601517 34.188901 0.179331 -1.281220 15.935017 -0.000001 -0.000000 0.000001 -0.000000 0.000001 0.000001 -0.000002 -0.000000 -0.000002 -0.000001 0.000001 -0.000000 0.000000 0.000001 0.000001 0.000001 0.000001 0.000001 0.000000 0.000001 0.000001 0.000001 0.000001 0.000003 -0.000006 0.000000 -0.000000 -0.000006 0.000000 -0.000000 -0.000006 0.000000 -0.000000 -0.000006 0.000000 -0.000000 -0.000006 0.000000 -0.000000 -0.000006 0.000000 -0.000000 -0.000006 0.000000 -0.000000 -0.000001 0.000000 -0.000000 0.000000 -0.000000 0.000000 
